<svg width="16" height="16" viewBox="0 0 16 16" fill="none" xmlns="http://www.w3.org/2000/svg">
<g clip-path="url(#clip0_6_3187)">
<path d="M9.41317 10.4133C9.23007 10.6098 9.00927 10.7674 8.76394 10.8767C8.51861 10.986 8.25377 11.0448 7.98523 11.0496C7.71669 11.0543 7.44995 11.0049 7.20091 10.9043C6.95188 10.8037 6.72565 10.654 6.53573 10.4641C6.34582 10.2742 6.1961 10.0479 6.09551 9.7989C5.99492 9.54987 5.94552 9.28312 5.95026 9.01458C5.955 8.74604 6.01378 8.48121 6.12309 8.23587C6.2324 7.99054 6.39001 7.76974 6.5865 7.58664M11.9598 12.96C10.8202 13.8286 9.43258 14.3099 7.99984 14.3333C3.33317 14.3333 0.666504 8.99998 0.666504 8.99998C1.49576 7.45457 2.64593 6.10438 4.03984 5.03998L11.9598 12.96ZM6.59984 3.82664C7.05873 3.71923 7.52855 3.66554 7.99984 3.66664C12.6665 3.66664 15.3332 8.99998 15.3332 8.99998C14.9285 9.75705 14.4459 10.4698 13.8932 11.1266L6.59984 3.82664Z" stroke="black" stroke-linecap="round" stroke-linejoin="round"/>
<path d="M0.666504 1.66663L15.3332 16.3333" stroke="black" stroke-linecap="round" stroke-linejoin="round"/>
</g>
<defs>
<clipPath id="clip0_6_3187">
<rect width="16" height="16" fill="white"/>
</clipPath>
</defs>
</svg>
